<svg width="42" height="42" viewBox="0 0 42 42" fill="none" xmlns="http://www.w3.org/2000/svg">
<path fill-rule="evenodd" clip-rule="evenodd" d="M38.4981 15.0542L39.9987 16.5542C41.1866 17.7208 41.8327 19.3042 41.8327 20.9708C41.8535 22.6375 41.2075 24.2229 40.0404 25.4083C40.0265 25.4236 40.0126 25.437 39.9987 25.4504C39.9918 25.4572 39.9848 25.4639 39.9778 25.4708L38.4981 26.95C37.9146 27.5333 37.5811 28.325 37.5811 29.1604V31.3042C37.5811 34.7625 34.7676 37.5771 31.308 37.5771H29.1614C28.3278 37.5771 27.5358 37.9083 26.9523 38.4917L25.4517 39.9917C24.2221 41.2229 22.6174 41.825 21.0126 41.825C19.4079 41.825 17.8031 41.2229 16.5735 40.0146L15.0521 38.4917C14.4686 37.9083 13.6766 37.5771 12.843 37.5771H10.6964C7.23681 37.5771 4.42329 34.7625 4.42329 31.3042V29.1604C4.42329 28.325 4.08983 27.5333 3.50629 26.9292L2.00575 25.45C-0.432638 23.0146 -0.453479 19.0333 1.9849 16.5771L3.50629 15.0542C4.08983 14.4708 4.42329 13.6792 4.42329 12.825V10.7C4.42329 7.24167 7.23681 4.43126 10.6964 4.43126H12.843C13.6766 4.43126 14.4686 4.09584 15.0521 3.51251L16.5527 2.01251C18.9911 -0.443743 22.9717 -0.443743 25.4309 1.99376L26.9523 3.51251C27.5358 4.09584 28.3278 4.43126 29.1614 4.43126H31.308C34.7676 4.43126 37.5811 7.24167 37.5811 10.7V12.8479C37.5811 13.6792 37.9146 14.4708 38.4981 15.0542ZM15.6356 28.1792C16.1358 28.1792 16.5943 27.9917 16.9277 27.6375L27.6399 16.9313C28.3485 16.2229 28.3485 15.0542 27.6399 14.3459C26.9314 13.6396 25.7851 13.6396 25.0765 14.3459L14.3643 25.0542C13.6557 25.7625 13.6557 26.9292 14.3643 27.6375C14.6978 27.9917 15.1563 28.1792 15.6356 28.1792ZM24.5348 26.3459C24.5348 27.3667 25.3476 28.1792 26.3688 28.1792C27.3691 28.1792 28.1819 27.3667 28.1819 26.3459C28.1819 25.348 27.3691 24.5334 26.3688 24.5334C25.3476 24.5334 24.5348 25.348 24.5348 26.3459ZM15.6566 13.8251C16.6569 13.8251 17.4697 14.6376 17.4697 15.6376C17.4697 16.6605 16.6569 17.4709 15.6566 17.4709C14.6562 17.4709 13.8226 16.6605 13.8226 15.6376C13.8226 14.6376 14.6562 13.8251 15.6566 13.8251Z" fill="#3592EF"/>
</svg>
