<svg width="36" height="42" viewBox="0 0 36 42" fill="none" xmlns="http://www.w3.org/2000/svg">
<path fill-rule="evenodd" clip-rule="evenodd" d="M17.4336 41.6534C17.6643 41.7739 17.9223 41.8352 18.1803 41.8332C18.4383 41.8312 18.6942 41.7678 18.927 41.6452L26.36 37.6718C28.4679 36.5481 30.1185 35.2917 31.4063 33.829C34.2063 30.642 35.7353 26.5746 35.708 22.3805L35.6199 8.54576C35.6115 6.95227 34.565 5.5304 33.0171 5.01354L19.1891 0.374051C18.3565 0.0921276 17.4441 0.0982563 16.6261 0.388352L2.85062 5.19331C1.31115 5.7306 0.283434 7.16269 0.291823 8.75822L0.379913 22.5827C0.407179 26.783 1.9886 30.832 4.83473 33.9863C6.1351 35.4286 7.80041 36.6666 9.93134 37.7719L17.4336 41.6534ZM15.466 25.3936C15.7764 25.6918 16.1791 25.8389 16.5818 25.8348C16.9845 25.8328 17.3851 25.6816 17.6913 25.3793L25.8144 17.371C26.4247 16.7683 26.4184 15.8 25.8018 15.2055C25.1831 14.611 24.1868 14.6151 23.5765 15.2178L16.5587 22.1351L13.6853 19.3731C13.0666 18.7786 12.0724 18.7847 11.46 19.3874C10.8497 19.99 10.856 20.9584 11.4747 21.5529L15.466 25.3936Z" fill="#071C35"/>
<path fill-rule="evenodd" clip-rule="evenodd" d="M17.4336 41.6534C17.6643 41.7739 17.9223 41.8352 18.1803 41.8332C18.4383 41.8312 18.6942 41.7678 18.927 41.6452L26.36 37.6718C28.4679 36.5481 30.1185 35.2917 31.4063 33.829C34.2063 30.642 35.7353 26.5746 35.708 22.3805L35.6199 8.54576C35.6115 6.95227 34.565 5.5304 33.0171 5.01354L19.1891 0.374051C18.3565 0.0921276 17.4441 0.0982563 16.6261 0.388352L2.85062 5.19331C1.31115 5.7306 0.283434 7.16269 0.291823 8.75822L0.379913 22.5827C0.407179 26.783 1.9886 30.832 4.83473 33.9863C6.1351 35.4286 7.80041 36.6666 9.93134 37.7719L17.4336 41.6534ZM15.466 25.3936C15.7764 25.6918 16.1791 25.8389 16.5818 25.8348C16.9845 25.8328 17.3851 25.6816 17.6913 25.3793L25.8144 17.371C26.4247 16.7683 26.4184 15.8 25.8018 15.2055C25.1831 14.611 24.1868 14.6151 23.5765 15.2178L16.5587 22.1351L13.6853 19.3731C13.0666 18.7786 12.0724 18.7847 11.46 19.3874C10.8497 19.99 10.856 20.9584 11.4747 21.5529L15.466 25.3936Z" fill="#3592EF"/>
</svg>
