<svg width="42" height="38" viewBox="0 0 42 38" fill="none" xmlns="http://www.w3.org/2000/svg">
<path fill-rule="evenodd" clip-rule="evenodd" d="M33.0184 11.4621H41.8332C41.8332 4.38457 37.5924 0.25 30.4072 0.25H11.5924C4.40725 0.25 0.166504 4.38457 0.166504 11.3718V26.6282C0.166504 33.6154 4.40725 37.75 11.5924 37.75H30.4072C37.5924 37.75 41.8332 33.6154 41.8332 26.6282V25.9782H33.0184C28.9274 25.9782 25.611 22.7448 25.611 18.7563C25.611 14.7677 28.9274 11.5343 33.0184 11.5343V11.4621ZM33.0186 14.5676H40.2779C41.137 14.5676 41.8334 15.2466 41.8334 16.0842V21.3562C41.8234 22.1897 41.1328 22.863 40.2779 22.8728H33.1853C31.1142 22.9 29.3032 21.5175 28.8334 19.5507C28.5982 18.3298 28.9284 17.07 29.7357 16.1088C30.5429 15.1477 31.7446 14.5835 33.0186 14.5676ZM33.3334 20.1104H34.0186C34.8981 20.1104 35.6112 19.4152 35.6112 18.5577C35.6112 17.7002 34.8981 17.005 34.0186 17.005H33.3334C32.9127 17.0002 32.5076 17.1597 32.2084 17.448C31.9092 17.7364 31.7408 18.1295 31.7408 18.5396C31.7407 19.4002 32.4508 20.1005 33.3334 20.1104ZM10.0367 11.4621H21.7959C22.6755 11.4621 23.3885 10.767 23.3885 9.90941C23.3885 9.05187 22.6755 8.35669 21.7959 8.35669H10.0367C9.16429 8.35664 8.45422 9.04087 8.44408 9.89136C8.44402 10.7519 9.15412 11.4522 10.0367 11.4621Z" fill="#071C35"/>
<path fill-rule="evenodd" clip-rule="evenodd" d="M33.0184 11.4621H41.8332C41.8332 4.38457 37.5924 0.25 30.4072 0.25H11.5924C4.40725 0.25 0.166504 4.38457 0.166504 11.3718V26.6282C0.166504 33.6154 4.40725 37.75 11.5924 37.75H30.4072C37.5924 37.75 41.8332 33.6154 41.8332 26.6282V25.9782H33.0184C28.9274 25.9782 25.611 22.7448 25.611 18.7563C25.611 14.7677 28.9274 11.5343 33.0184 11.5343V11.4621ZM33.0186 14.5676H40.2779C41.137 14.5676 41.8334 15.2466 41.8334 16.0842V21.3562C41.8234 22.1897 41.1328 22.863 40.2779 22.8728H33.1853C31.1142 22.9 29.3032 21.5175 28.8334 19.5507C28.5982 18.3298 28.9284 17.07 29.7357 16.1088C30.5429 15.1477 31.7446 14.5835 33.0186 14.5676ZM33.3334 20.1104H34.0186C34.8981 20.1104 35.6112 19.4152 35.6112 18.5577C35.6112 17.7002 34.8981 17.005 34.0186 17.005H33.3334C32.9127 17.0002 32.5076 17.1597 32.2084 17.448C31.9092 17.7364 31.7408 18.1295 31.7408 18.5396C31.7407 19.4002 32.4508 20.1005 33.3334 20.1104ZM10.0367 11.4621H21.7959C22.6755 11.4621 23.3885 10.767 23.3885 9.90941C23.3885 9.05187 22.6755 8.35669 21.7959 8.35669H10.0367C9.16429 8.35664 8.45422 9.04087 8.44408 9.89136C8.44402 10.7519 9.15412 11.4522 10.0367 11.4621Z" fill="#3592EF"/>
</svg>
